<?xml version="1.0" encoding="UTF-8" standalone="no"?>
<svg
   version="1.1"
   width="24"
   height="24"
   viewBox="0 0 24 24"
   id="svg11"
   sodipodi:docname="database.svg"
   inkscape:version="1.1.1 (c3084ef, 2021-09-22)"
   xmlns:inkscape="http://www.inkscape.org/namespaces/inkscape"
   xmlns:sodipodi="http://sodipodi.sourceforge.net/DTD/sodipodi-0.dtd"
   xmlns="http://www.w3.org/2000/svg"
   xmlns:svg="http://www.w3.org/2000/svg">
  <defs
     id="defs15" />
  <sodipodi:namedview
     id="namedview13"
     pagecolor="#ffffff"
     bordercolor="#666666"
     borderopacity="1.0"
     inkscape:pageshadow="2"
     inkscape:pageopacity="0.0"
     inkscape:pagecheckerboard="0"
     showgrid="false"
     inkscape:zoom="36.375"
     inkscape:cx="11.986254"
     inkscape:cy="11.986254"
     inkscape:window-width="1909"
     inkscape:window-height="1230"
     inkscape:window-x="1112"
     inkscape:window-y="89"
     inkscape:window-maximized="0"
     inkscape:current-layer="svg11" />
  <path
     d="M12 3C7.58 3 4 4.79 4 7V17C4 19.21 7.59 21 12 21S20 19.21 20 17V7C20 4.79 16.42 3 12 3M18 17C18 17.5 15.87 19 12 19S6 17.5 6 17V14.77C7.61 15.55 9.72 16 12 16S16.39 15.55 18 14.77V17M18 12.45C16.7 13.4 14.42 14 12 14C9.58 14 7.3 13.4 6 12.45V9.64C7.47 10.47 9.61 11 12 11C14.39 11 16.53 10.47 18 9.64V12.45M12 9C8.13 9 6 7.5 6 7S8.13 5 12 5C15.87 5 18 6.5 18 7S15.87 9 12 9Z"
     id="path9"
     style="fill:#ffffff" />
</svg>
