<svg width="2589" height="1631" xmlns="http://www.w3.org/2000/svg" xmlns:xlink="http://www.w3.org/1999/xlink" xml:space="preserve" overflow="hidden"><defs><clipPath id="clip0"><rect x="424" y="741" width="2589" height="1631"/></clipPath></defs><g clip-path="url(#clip0)" transform="translate(-424 -741)"><path d="M724 796.654C724 765.917 748.917 741 779.653 741L1565.35 741C1596.08 741 1621 765.917 1621 796.654L1621 1409.35C1621 1440.08 1596.08 1465 1565.35 1465L779.653 1465C748.917 1465 724 1440.08 724 1409.35Z" fill="#BFBFBF" fill-rule="evenodd"/><text fill="#FFFFFF" font-family="Meiryo UI,Meiryo UI_MSFontService,sans-serif" font-weight="400" font-size="83" transform="matrix(1 0 0 1 772.995 857)">PC</text><path d="M777 1325.78C777 1308.23 791.228 1294 808.778 1294L1536.22 1294C1553.77 1294 1568 1308.23 1568 1325.78L1568 1366.22C1568 1383.77 1553.77 1398 1536.22 1398L808.778 1398C791.228 1398 777 1383.77 777 1366.22Z" fill="#FFFFFF" fill-rule="evenodd"/><text font-family="Meiryo UI,Meiryo UI_MSFontService,sans-serif" font-weight="400" font-size="55" transform="matrix(1 0 0 1 1078.9 1368)">Docker</text><path d="M777 913.568C777 893.924 792.924 878 812.568 878L1532.43 878C1552.08 878 1568 893.924 1568 913.568L1568 1230.43C1568 1250.08 1552.08 1266 1532.43 1266L812.568 1266C792.924 1266 777 1250.08 777 1230.43Z" fill="#FFFFFF" fill-rule="evenodd"/><text font-family="Meiryo UI,Meiryo UI_MSFontService,sans-serif" font-weight="400" font-size="55" transform="matrix(1 0 0 1 1047.67 1228)">container</text><path d="M805 949.306C805 928.15 822.15 911 843.306 911L1500.69 911C1521.85 911 1539 928.15 1539 949.306L1539 1121.69C1539 1142.85 1521.85 1160 1500.69 1160L843.306 1160C822.15 1160 805 1142.85 805 1121.69Z" fill="#FF9999" fill-rule="evenodd"/><text fill="#FFFFFF" font-family="Meiryo UI,Meiryo UI_MSFontService,sans-serif" font-weight="400" font-size="73" transform="matrix(1 0 0 1 1042.8 1064)">WHEEL</text><path d="M2116 1389.36C2116 1372.59 2129.59 1359 2146.36 1359L2982.64 1359C2999.41 1359 3013 1372.59 3013 1389.36L3013 1723.64C3013 1740.41 2999.41 1754 2982.64 1754L2146.36 1754C2129.59 1754 2116 1740.41 2116 1723.64Z" fill="#BFBFBF" fill-rule="evenodd"/><text fill="#FFFFFF" font-family="Meiryo UI,Meiryo UI_MSFontService,sans-serif" font-weight="400" font-size="83" transform="matrix(1 0 0 1 2379.83 1590)">計算サーバ</text><path d="M1542.46 1031.17 2100.37 1535.01 2093.46 1542.67 1535.54 1038.83ZM2103.46 1523.9 2116.05 1556.12 2082.72 1546.86Z" fill="#A6A6A6"/><path d="M449 1169.5C449 1144.37 469.371 1124 494.5 1124 519.629 1124 540 1144.37 540 1169.5 540 1194.63 519.629 1215 494.5 1215 469.371 1215 449 1194.63 449 1169.5Z" fill="#A6A6A6" fill-rule="evenodd"/><path d="M459.276 1224 528.724 1224C548.207 1224 564 1239.83 564 1259.37L564 1318 424 1318 424 1259.37C424 1239.83 439.793 1224 459.276 1224Z" fill="#A6A6A6" fill-rule="evenodd"/><path d="M586 1223.84 697.868 1223.84 697.868 1234.16 586 1234.16ZM692.712 1213.53 723.649 1229 692.712 1244.47Z" fill="#A6A6A6"/><path d="M2.86881-4.28449 558.498 367.754 552.76 376.323-2.86881 4.28449ZM559.95 356.316 577.051 386.383 542.737 382.023Z" fill="#A6A6A6" transform="matrix(1 0 0 -1 1539 1943.38)"/><path d="M724 1703.65C724 1672.92 748.917 1648 779.653 1648L1565.35 1648C1596.08 1648 1621 1672.92 1621 1703.65L1621 2316.35C1621 2347.08 1596.08 2372 1565.35 2372L779.653 2372C748.917 2372 724 2347.08 724 2316.35Z" fill="#BFBFBF" fill-rule="evenodd"/><text fill="#FFFFFF" font-family="Meiryo UI,Meiryo UI_MSFontService,sans-serif" font-weight="400" font-size="83" transform="matrix(1 0 0 1 772.995 1764)">PC</text><path d="M777 2233.78C777 2216.23 791.228 2202 808.778 2202L1536.22 2202C1553.77 2202 1568 2216.23 1568 2233.78L1568 2274.22C1568 2291.77 1553.77 2306 1536.22 2306L808.778 2306C791.228 2306 777 2291.77 777 2274.22Z" fill="#FFFFFF" fill-rule="evenodd"/><text font-family="Meiryo UI,Meiryo UI_MSFontService,sans-serif" font-weight="400" font-size="55" transform="matrix(1 0 0 1 1078.9 2276)">Docker</text><path d="M777 1821.48C777 1801.88 792.883 1786 812.476 1786L1532.52 1786C1552.12 1786 1568 1801.88 1568 1821.48L1568 2137.52C1568 2157.12 1552.12 2173 1532.52 2173L812.476 2173C792.883 2173 777 2157.12 777 2137.52Z" fill="#FFFFFF" fill-rule="evenodd"/><text font-family="Meiryo UI,Meiryo UI_MSFontService,sans-serif" font-weight="400" font-size="55" transform="matrix(1 0 0 1 1047.67 2135)">container</text><path d="M805 1856.46C805 1835.22 822.219 1818 843.46 1818L1500.54 1818C1521.78 1818 1539 1835.22 1539 1856.46L1539 2029.54C1539 2050.78 1521.78 2068 1500.54 2068L843.46 2068C822.219 2068 805 2050.78 805 2029.54Z" fill="#FF9999" fill-rule="evenodd"/><text fill="#FFFFFF" font-family="Meiryo UI,Meiryo UI_MSFontService,sans-serif" font-weight="400" font-size="73" transform="matrix(1 0 0 1 1042.8 1972)">WHEEL</text><path d="M449 2077.5C449 2052.37 469.371 2032 494.5 2032 519.629 2032 540 2052.37 540 2077.5 540 2102.63 519.629 2123 494.5 2123 469.371 2123 449 2102.63 449 2077.5Z" fill="#A6A6A6" fill-rule="evenodd"/><path d="M459.276 2132 528.724 2132C548.207 2132 564 2147.67 564 2166.99L564 2225 424 2225 424 2166.99C424 2147.67 439.793 2132 459.276 2132Z" fill="#A6A6A6" fill-rule="evenodd"/><path d="M586 2130.84 697.868 2130.84 697.868 2141.16 586 2141.16ZM692.712 2120.53 723.649 2136 692.712 2151.47Z" fill="#A6A6A6"/></g></svg>