<svg width="2792" height="571" xmlns="http://www.w3.org/2000/svg" xmlns:xlink="http://www.w3.org/1999/xlink" xml:space="preserve" overflow="hidden"><defs><clipPath id="clip0"><rect x="563" y="469" width="2792" height="571"/></clipPath></defs><g clip-path="url(#clip0)" transform="translate(-563 -469)"><rect x="565.5" y="471.5" width="590" height="549" stroke="#595959" stroke-width="4.58333" stroke-miterlimit="8" fill="#FFFFFF"/><text fill="#404040" font-family="Yu Gothic,Yu Gothic_MSFontService,sans-serif" font-weight="400" font-size="48" transform="matrix(1 0 0 1 598.46 531)">PS0</text><rect x="603" y="651" width="445" height="150" fill="#FFCCFF"/><text fill="#404040" font-family="Yu Gothic,Yu Gothic_MSFontService,sans-serif" font-weight="400" font-size="48" transform="matrix(1 0 0 1 636.297 711)">paraA</text><text fill="#404040" font-family="Yu Gothic,Yu Gothic_MSFontService,sans-serif" font-weight="400" font-size="48" transform="matrix(1 0 0 1 767.495 711)">=[1, 2, 3]</text><text fill="#404040" font-family="Yu Gothic,Yu Gothic_MSFontService,sans-serif" font-weight="400" font-size="48" transform="matrix(1 0 0 1 636.297 769)">paraB</text><text fill="#404040" font-family="Yu Gothic,Yu Gothic_MSFontService,sans-serif" font-weight="400" font-size="48" transform="matrix(1 0 0 1 768.641 769)">=["x", "y"]</text><text font-family="Yu Gothic,Yu Gothic_MSFontService,sans-serif" font-weight="400" font-size="48" transform="matrix(1 0 0 1 636.297 847)">parameterFile</text><rect x="1483.5" y="471.5" width="902" height="149" stroke="#595959" stroke-width="4.58333" stroke-miterlimit="8" fill="#FFFFFF"/><text fill="#404040" font-family="Yu Gothic,Yu Gothic_MSFontService,sans-serif" font-weight="400" font-size="48" transform="matrix(1 0 0 1 1515.68 531)">PS0</text><text fill="#404040" font-family="Yu Gothic,Yu Gothic_MSFontService,sans-serif" font-weight="400" font-size="48" transform="matrix(1 0 0 1 1515.68 589)">(</text><text fill="#404040" font-family="Yu Gothic,Yu Gothic_MSFontService,sans-serif" font-weight="400" font-size="48" transform="matrix(1 0 0 1 1534.01 589)">paraA</text><text fill="#404040" font-family="Yu Gothic,Yu Gothic_MSFontService,sans-serif" font-weight="400" font-size="48" transform="matrix(1 0 0 1 1665.21 589)">=</text><text fill="#FF0000" font-family="Yu Gothic,Yu Gothic_MSFontService,sans-serif" font-weight="400" font-size="48" transform="matrix(1 0 0 1 1700.16 589)">1</text><text fill="#404040" font-family="Yu Gothic,Yu Gothic_MSFontService,sans-serif" font-weight="400" font-size="48" transform="matrix(1 0 0 1 1727.08 589)">, </text><text fill="#404040" font-family="Yu Gothic,Yu Gothic_MSFontService,sans-serif" font-weight="400" font-size="48" transform="matrix(1 0 0 1 1753.44 589)">paraB</text><text fill="#404040" font-family="Yu Gothic,Yu Gothic_MSFontService,sans-serif" font-weight="400" font-size="48" transform="matrix(1 0 0 1 1885.78 589)">="</text><text fill="#FF0000" font-family="Yu Gothic,Yu Gothic_MSFontService,sans-serif" font-weight="400" font-size="48" transform="matrix(1 0 0 1 1940.21 589)">x</text><text fill="#404040" font-family="Yu Gothic,Yu Gothic_MSFontService,sans-serif" font-weight="400" font-size="48" transform="matrix(1 0 0 1 1963.7 589)">")</text><rect x="1483.5" y="674.5" width="902" height="150" stroke="#595959" stroke-width="4.58333" stroke-miterlimit="8" fill="#FFFFFF"/><text fill="#404040" font-family="Yu Gothic,Yu Gothic_MSFontService,sans-serif" font-weight="400" font-size="48" transform="matrix(1 0 0 1 1515.68 735)">PS0</text><text fill="#404040" font-family="Yu Gothic,Yu Gothic_MSFontService,sans-serif" font-weight="400" font-size="48" transform="matrix(1 0 0 1 1515.68 793)">(</text><text fill="#404040" font-family="Yu Gothic,Yu Gothic_MSFontService,sans-serif" font-weight="400" font-size="48" transform="matrix(1 0 0 1 1534.01 793)">paraA</text><text fill="#404040" font-family="Yu Gothic,Yu Gothic_MSFontService,sans-serif" font-weight="400" font-size="48" transform="matrix(1 0 0 1 1665.21 793)">=</text><text fill="#FF0000" font-family="Yu Gothic,Yu Gothic_MSFontService,sans-serif" font-weight="400" font-size="48" transform="matrix(1 0 0 1 1700.16 793)">2</text><text fill="#404040" font-family="Yu Gothic,Yu Gothic_MSFontService,sans-serif" font-weight="400" font-size="48" transform="matrix(1 0 0 1 1727.08 793)">, </text><text fill="#404040" font-family="Yu Gothic,Yu Gothic_MSFontService,sans-serif" font-weight="400" font-size="48" transform="matrix(1 0 0 1 1753.44 793)">paraB</text><text fill="#404040" font-family="Yu Gothic,Yu Gothic_MSFontService,sans-serif" font-weight="400" font-size="48" transform="matrix(1 0 0 1 1885.78 793)">="</text><text fill="#FF0000" font-family="Yu Gothic,Yu Gothic_MSFontService,sans-serif" font-weight="400" font-size="48" transform="matrix(1 0 0 1 1940.21 793)">x</text><text fill="#404040" font-family="Yu Gothic,Yu Gothic_MSFontService,sans-serif" font-weight="400" font-size="48" transform="matrix(1 0 0 1 1963.7 793)">")</text><rect x="1483.5" y="878.5" width="902" height="150" stroke="#595959" stroke-width="4.58333" stroke-miterlimit="8" fill="#FFFFFF"/><text fill="#404040" font-family="Yu Gothic,Yu Gothic_MSFontService,sans-serif" font-weight="400" font-size="48" transform="matrix(1 0 0 1 1515.68 938)">PS0</text><text fill="#404040" font-family="Yu Gothic,Yu Gothic_MSFontService,sans-serif" font-weight="400" font-size="48" transform="matrix(1 0 0 1 1515.68 996)">(</text><text fill="#404040" font-family="Yu Gothic,Yu Gothic_MSFontService,sans-serif" font-weight="400" font-size="48" transform="matrix(1 0 0 1 1534.01 996)">paraA</text><text fill="#404040" font-family="Yu Gothic,Yu Gothic_MSFontService,sans-serif" font-weight="400" font-size="48" transform="matrix(1 0 0 1 1665.21 996)">=</text><text fill="#FF0000" font-family="Yu Gothic,Yu Gothic_MSFontService,sans-serif" font-weight="400" font-size="48" transform="matrix(1 0 0 1 1700.16 996)">3</text><text fill="#404040" font-family="Yu Gothic,Yu Gothic_MSFontService,sans-serif" font-weight="400" font-size="48" transform="matrix(1 0 0 1 1727.08 996)">, </text><text fill="#404040" font-family="Yu Gothic,Yu Gothic_MSFontService,sans-serif" font-weight="400" font-size="48" transform="matrix(1 0 0 1 1753.44 996)">paraB</text><text fill="#404040" font-family="Yu Gothic,Yu Gothic_MSFontService,sans-serif" font-weight="400" font-size="48" transform="matrix(1 0 0 1 1885.78 996)">="</text><text fill="#FF0000" font-family="Yu Gothic,Yu Gothic_MSFontService,sans-serif" font-weight="400" font-size="48" transform="matrix(1 0 0 1 1940.21 996)">x</text><text fill="#404040" font-family="Yu Gothic,Yu Gothic_MSFontService,sans-serif" font-weight="400" font-size="48" transform="matrix(1 0 0 1 1963.7 996)">")</text><rect x="2450.5" y="471.5" width="902" height="149" stroke="#595959" stroke-width="4.58333" stroke-miterlimit="8" fill="#FFFFFF"/><text fill="#404040" font-family="Yu Gothic,Yu Gothic_MSFontService,sans-serif" font-weight="400" font-size="48" transform="matrix(1 0 0 1 2482.52 531)">PS0</text><text fill="#404040" font-family="Yu Gothic,Yu Gothic_MSFontService,sans-serif" font-weight="400" font-size="48" transform="matrix(1 0 0 1 2482.52 589)">(</text><text fill="#404040" font-family="Yu Gothic,Yu Gothic_MSFontService,sans-serif" font-weight="400" font-size="48" transform="matrix(1 0 0 1 2500.85 589)">paraA</text><text fill="#404040" font-family="Yu Gothic,Yu Gothic_MSFontService,sans-serif" font-weight="400" font-size="48" transform="matrix(1 0 0 1 2632.05 589)">=</text><text fill="#FF0000" font-family="Yu Gothic,Yu Gothic_MSFontService,sans-serif" font-weight="400" font-size="48" transform="matrix(1 0 0 1 2667 589)">1</text><text fill="#404040" font-family="Yu Gothic,Yu Gothic_MSFontService,sans-serif" font-weight="400" font-size="48" transform="matrix(1 0 0 1 2693.92 589)">, </text><text fill="#404040" font-family="Yu Gothic,Yu Gothic_MSFontService,sans-serif" font-weight="400" font-size="48" transform="matrix(1 0 0 1 2720.28 589)">paraB</text><text fill="#404040" font-family="Yu Gothic,Yu Gothic_MSFontService,sans-serif" font-weight="400" font-size="48" transform="matrix(1 0 0 1 2852.62 589)">="</text><text fill="#FF0000" font-family="Yu Gothic,Yu Gothic_MSFontService,sans-serif" font-weight="400" font-size="48" transform="matrix(1 0 0 1 2907.05 589)">y</text><text fill="#404040" font-family="Yu Gothic,Yu Gothic_MSFontService,sans-serif" font-weight="400" font-size="48" transform="matrix(1 0 0 1 2930.54 589)">")</text><rect x="2450.5" y="674.5" width="902" height="150" stroke="#595959" stroke-width="4.58333" stroke-miterlimit="8" fill="#FFFFFF"/><text fill="#404040" font-family="Yu Gothic,Yu Gothic_MSFontService,sans-serif" font-weight="400" font-size="48" transform="matrix(1 0 0 1 2482.52 735)">PS0</text><text fill="#404040" font-family="Yu Gothic,Yu Gothic_MSFontService,sans-serif" font-weight="400" font-size="48" transform="matrix(1 0 0 1 2482.52 793)">(</text><text fill="#404040" font-family="Yu Gothic,Yu Gothic_MSFontService,sans-serif" font-weight="400" font-size="48" transform="matrix(1 0 0 1 2500.85 793)">paraA</text><text fill="#404040" font-family="Yu Gothic,Yu Gothic_MSFontService,sans-serif" font-weight="400" font-size="48" transform="matrix(1 0 0 1 2632.05 793)">=</text><text fill="#FF0000" font-family="Yu Gothic,Yu Gothic_MSFontService,sans-serif" font-weight="400" font-size="48" transform="matrix(1 0 0 1 2667 793)">2</text><text fill="#404040" font-family="Yu Gothic,Yu Gothic_MSFontService,sans-serif" font-weight="400" font-size="48" transform="matrix(1 0 0 1 2693.92 793)">, </text><text fill="#404040" font-family="Yu Gothic,Yu Gothic_MSFontService,sans-serif" font-weight="400" font-size="48" transform="matrix(1 0 0 1 2720.28 793)">paraB</text><text fill="#404040" font-family="Yu Gothic,Yu Gothic_MSFontService,sans-serif" font-weight="400" font-size="48" transform="matrix(1 0 0 1 2852.62 793)">="</text><text fill="#FF0000" font-family="Yu Gothic,Yu Gothic_MSFontService,sans-serif" font-weight="400" font-size="48" transform="matrix(1 0 0 1 2907.05 793)">y</text><text fill="#404040" font-family="Yu Gothic,Yu Gothic_MSFontService,sans-serif" font-weight="400" font-size="48" transform="matrix(1 0 0 1 2930.54 793)">")</text><rect x="2450.5" y="878.5" width="902" height="150" stroke="#595959" stroke-width="4.58333" stroke-miterlimit="8" fill="#FFFFFF"/><text fill="#404040" font-family="Yu Gothic,Yu Gothic_MSFontService,sans-serif" font-weight="400" font-size="48" transform="matrix(1 0 0 1 2482.52 938)">PS0</text><text fill="#404040" font-family="Yu Gothic,Yu Gothic_MSFontService,sans-serif" font-weight="400" font-size="48" transform="matrix(1 0 0 1 2482.52 996)">(</text><text fill="#404040" font-family="Yu Gothic,Yu Gothic_MSFontService,sans-serif" font-weight="400" font-size="48" transform="matrix(1 0 0 1 2500.85 996)">paraA</text><text fill="#404040" font-family="Yu Gothic,Yu Gothic_MSFontService,sans-serif" font-weight="400" font-size="48" transform="matrix(1 0 0 1 2632.05 996)">=</text><text fill="#FF0000" font-family="Yu Gothic,Yu Gothic_MSFontService,sans-serif" font-weight="400" font-size="48" transform="matrix(1 0 0 1 2667 996)">3</text><text fill="#404040" font-family="Yu Gothic,Yu Gothic_MSFontService,sans-serif" font-weight="400" font-size="48" transform="matrix(1 0 0 1 2693.92 996)">, </text><text fill="#404040" font-family="Yu Gothic,Yu Gothic_MSFontService,sans-serif" font-weight="400" font-size="48" transform="matrix(1 0 0 1 2720.28 996)">paraB</text><text fill="#404040" font-family="Yu Gothic,Yu Gothic_MSFontService,sans-serif" font-weight="400" font-size="48" transform="matrix(1 0 0 1 2852.62 996)">="</text><text fill="#FF0000" font-family="Yu Gothic,Yu Gothic_MSFontService,sans-serif" font-weight="400" font-size="48" transform="matrix(1 0 0 1 2907.05 996)">y</text><text fill="#404040" font-family="Yu Gothic,Yu Gothic_MSFontService,sans-serif" font-weight="400" font-size="48" transform="matrix(1 0 0 1 2930.54 996)">")</text><path d="M1269 716.75 1344.5 716.75 1344.5 680 1418 753.5 1344.5 827 1344.5 790.25 1269 790.25Z" fill="#7F7F7F" fill-rule="evenodd"/></g></svg>