<svg width="1544" height="655" xmlns="http://www.w3.org/2000/svg" xmlns:xlink="http://www.w3.org/1999/xlink" xml:space="preserve" overflow="hidden"><defs><clipPath id="clip0"><rect x="1061" y="479" width="1544" height="655"/></clipPath><clipPath id="clip1"><rect x="1062" y="667" width="239" height="239"/></clipPath><clipPath id="clip2"><rect x="1062" y="667" width="239" height="239"/></clipPath><clipPath id="clip3"><rect x="1062" y="667" width="239" height="239"/></clipPath><clipPath id="clip4"><rect x="2350" y="716" width="211" height="210"/></clipPath><clipPath id="clip5"><rect x="2350" y="716" width="211" height="210"/></clipPath><clipPath id="clip6"><rect x="2350" y="716" width="211" height="210"/></clipPath><clipPath id="clip7"><rect x="2370" y="691" width="211" height="210"/></clipPath><clipPath id="clip8"><rect x="2370" y="691" width="211" height="210"/></clipPath><clipPath id="clip9"><rect x="2370" y="691" width="211" height="210"/></clipPath><clipPath id="clip10"><rect x="2392" y="667" width="210" height="210"/></clipPath><clipPath id="clip11"><rect x="2392" y="667" width="210" height="210"/></clipPath><clipPath id="clip12"><rect x="2392" y="667" width="210" height="210"/></clipPath></defs><g clip-path="url(#clip0)" transform="translate(-1061 -479)"><rect x="1063.5" y="481.5" width="1539" height="650" stroke="#595959" stroke-width="4.58333" stroke-miterlimit="8" fill="#FFFFFF"/><text fill="#404040" font-family="Yu Gothic,Yu Gothic_MSFontService,sans-serif" font-weight="400" font-size="48" transform="matrix(1 0 0 1 1096.33 542)">PS0</text><rect x="2066" y="588" width="299" height="501" fill="#DEEBF7"/><rect x="1303" y="588" width="299" height="501" fill="#DEEBF7"/><g clip-path="url(#clip1)"><g clip-path="url(#clip2)"><g clip-path="url(#clip3)"><path d="M1132.12 771.688 1230.88 771.688 1230.88 776.625 1132.12 776.625Z"/><path d="M1132.12 751.937 1179.03 751.937 1179.03 756.875 1132.12 756.875Z"/><path d="M1132.12 791.438 1230.88 791.438 1230.88 796.375 1132.12 796.375Z"/><path d="M1132.12 811.188 1230.88 811.188 1230.88 816.125 1132.12 816.125Z"/><path d="M1132.12 830.938 1230.88 830.938 1230.88 835.875 1132.12 835.875Z"/><path d="M1132.12 850.688 1230.88 850.688 1230.88 855.625 1132.12 855.625Z"/><path d="M1107.44 687.75 1107.44 885.25 1255.56 885.25 1255.56 741.04 1202.27 687.75ZM1203.76 696.22 1247.09 739.552C1247.1 739.561 1247.1 739.577 1247.09 739.587 1247.09 739.591 1247.08 739.594 1247.07 739.594L1203.72 739.594 1203.72 696.237C1203.72 696.224 1203.73 696.213 1203.74 696.213 1203.75 696.213 1203.76 696.216 1203.76 696.22ZM1112.37 880.313 1112.37 692.687 1198.78 692.687 1198.78 744.531 1250.62 744.531 1250.62 880.313Z"/></g></g></g><rect x="1613.5" y="634.5" width="435" height="91.9998" stroke="#595959" stroke-width="4.58333" stroke-miterlimit="8" fill="#FFFFFF"/><text fill="#404040" font-family="Yu Gothic,Yu Gothic_MSFontService,sans-serif" font-weight="400" font-size="48" transform="matrix(1 0 0 1 1646.33 694)">task0 (</text><text fill="#404040" font-family="Yu Gothic,Yu Gothic_MSFontService,sans-serif" font-weight="400" font-size="48" transform="matrix(1 0 0 1 1799.87 694)">paraA</text><text fill="#404040" font-family="Yu Gothic,Yu Gothic_MSFontService,sans-serif" font-weight="400" font-size="48" transform="matrix(1 0 0 1 1931.07 694)">=1)</text><rect x="1613.5" y="761.5" width="435" height="91.0001" stroke="#595959" stroke-width="4.58333" stroke-miterlimit="8" fill="#FFFFFF"/><text fill="#404040" font-family="Yu Gothic,Yu Gothic_MSFontService,sans-serif" font-weight="400" font-size="48" transform="matrix(1 0 0 1 1646.33 821)">task0 (</text><text fill="#404040" font-family="Yu Gothic,Yu Gothic_MSFontService,sans-serif" font-weight="400" font-size="48" transform="matrix(1 0 0 1 1799.87 821)">paraA</text><text fill="#404040" font-family="Yu Gothic,Yu Gothic_MSFontService,sans-serif" font-weight="400" font-size="48" transform="matrix(1 0 0 1 1931.07 821)">=2)</text><rect x="1613.5" y="884.5" width="435" height="91.0001" stroke="#595959" stroke-width="4.58333" stroke-miterlimit="8" fill="#FFFFFF"/><text fill="#404040" font-family="Yu Gothic,Yu Gothic_MSFontService,sans-serif" font-weight="400" font-size="48" transform="matrix(1 0 0 1 1646.33 944)">task0 (</text><text fill="#404040" font-family="Yu Gothic,Yu Gothic_MSFontService,sans-serif" font-weight="400" font-size="48" transform="matrix(1 0 0 1 1799.87 944)">paraA</text><text fill="#404040" font-family="Yu Gothic,Yu Gothic_MSFontService,sans-serif" font-weight="400" font-size="48" transform="matrix(1 0 0 1 1931.07 944)">=3)</text><path d="M0.369614-1.08458 311.179 104.836 310.439 107.005-0.369614 1.08458ZM290.816 81.1136 312.958 106.653 279.828 113.356C279.208 113.481 278.603 113.08 278.478 112.46 278.352 111.84 278.753 111.235 279.374 111.109L310.578 104.796 309.94 106.67 289.084 82.6148C288.67 82.1367 288.721 81.413 289.199 80.9985 289.678 80.5839 290.401 80.6355 290.816 81.1136Z" transform="matrix(1 0 0 -1 1300 786.651)"/><path d="M1300.07 784.857 1610.76 804.912 1610.62 807.199 1299.93 787.144ZM1584.92 787.325 1612.96 806.202 1582.73 821.317C1582.16 821.6 1581.47 821.371 1581.19 820.805 1580.9 820.239 1581.13 819.55 1581.7 819.267L1610.18 805.03 1610.05 807.006 1583.64 789.226C1583.11 788.873 1582.98 788.161 1583.33 787.636 1583.68 787.111 1584.39 786.972 1584.92 787.325Z"/><path d="M1300.48 784.958 1611.37 927.193 1610.42 929.277 1299.52 787.042ZM1593.49 901.546 1612.96 929.18 1579.32 932.521C1578.69 932.584 1578.13 932.124 1578.07 931.494 1578.01 930.864 1578.47 930.303 1579.1 930.241L1610.78 927.094 1609.95 928.894 1591.62 902.866C1591.26 902.348 1591.38 901.633 1591.9 901.269 1592.41 900.905 1593.13 901.029 1593.49 901.546Z"/><path d="M2048.16 678.865 2357.72 722.418 2357.4 724.688 2047.84 681.135ZM2333.28 702.937 2359.82 723.87 2328.53 736.668C2327.95 736.907 2327.28 736.627 2327.04 736.041 2326.8 735.455 2327.08 734.786 2327.66 734.547L2357.13 722.493 2356.85 724.453 2331.86 704.736C2331.36 704.344 2331.28 703.624 2331.67 703.127 2332.06 702.63 2332.78 702.545 2333.28 702.937Z"/><path d="M0.035824-1.14527 320.671 8.88415 320.599 11.1747-0.035824 1.14527ZM294.256-7.83545 322.906 10.1005 293.191 26.2107C292.635 26.5123 291.939 26.3059 291.637 25.7495 291.336 25.1932 291.542 24.4977 292.099 24.1961L320.087 9.02205 320.025 11.0006 293.04-5.89302C292.503-6.22882 292.341-6.93587 292.677-7.47225 293.012-8.00864 293.72-8.17125 294.256-7.83545Z" transform="matrix(1 0 0 -1 2048 806.1)"/><path d="M0.189113-1.13012 314.212 51.4181 313.834 53.6784-0.189113 1.13012ZM290.281 31.307 316.266 52.9236 284.659 64.9027C284.067 65.127 283.406 64.8291 283.181 64.2373 282.957 63.6456 283.255 62.984 283.847 62.7598L313.617 51.4768 313.29 53.4291 288.815 33.0688C288.329 32.6641 288.262 31.9416 288.667 31.4551 289.072 30.9686 289.794 30.9023 290.281 31.307Z" transform="matrix(1 0 0 -1 2048 929.923)"/><rect x="2393" y="735" width="127" height="169" fill="#FFFFFF"/><g clip-path="url(#clip4)"><g clip-path="url(#clip5)"><g clip-path="url(#clip6)"><path d="M60.9583 91.4375 148.042 91.4375 148.042 95.7917 60.9583 95.7917Z" transform="matrix(1.00478 0 0 1 2351 716)"/><path d="M60.9583 74.0208 102.323 74.0208 102.323 78.375 60.9583 78.375Z" transform="matrix(1.00478 0 0 1 2351 716)"/><path d="M60.9583 108.854 148.042 108.854 148.042 113.208 60.9583 113.208Z" transform="matrix(1.00478 0 0 1 2351 716)"/><path d="M60.9583 126.271 148.042 126.271 148.042 130.625 60.9583 130.625Z" transform="matrix(1.00478 0 0 1 2351 716)"/><path d="M60.9583 143.688 148.042 143.688 148.042 148.042 60.9583 148.042Z" transform="matrix(1.00478 0 0 1 2351 716)"/><path d="M60.9583 161.104 148.042 161.104 148.042 165.458 60.9583 165.458Z" transform="matrix(1.00478 0 0 1 2351 716)"/><path d="M39.1875 17.4167 39.1875 191.583 169.812 191.583 169.812 64.4112 122.818 17.4167ZM124.131 24.8862 162.343 63.0984C162.351 63.1069 162.351 63.1208 162.343 63.1291 162.339 63.133 162.333 63.1354 162.328 63.1354L124.094 63.1354 124.094 24.9015C124.094 24.8895 124.104 24.8799 124.116 24.8799 124.121 24.8801 124.127 24.8823 124.131 24.8862ZM43.5417 187.229 43.5417 21.7708 119.74 21.7708 119.74 67.4896 165.458 67.4896 165.458 187.229Z" transform="matrix(1.00478 0 0 1 2351 716)"/></g></g></g><rect x="2414" y="711" width="126" height="169" fill="#FFFFFF"/><g clip-path="url(#clip7)"><g clip-path="url(#clip8)"><g clip-path="url(#clip9)"><path d="M60.9583 91.4375 148.042 91.4375 148.042 95.7917 60.9583 95.7917Z" transform="matrix(1.00478 0 0 1 2371 692)"/><path d="M60.9583 74.0208 102.323 74.0208 102.323 78.375 60.9583 78.375Z" transform="matrix(1.00478 0 0 1 2371 692)"/><path d="M60.9583 108.854 148.042 108.854 148.042 113.208 60.9583 113.208Z" transform="matrix(1.00478 0 0 1 2371 692)"/><path d="M60.9583 126.271 148.042 126.271 148.042 130.625 60.9583 130.625Z" transform="matrix(1.00478 0 0 1 2371 692)"/><path d="M60.9583 143.688 148.042 143.688 148.042 148.042 60.9583 148.042Z" transform="matrix(1.00478 0 0 1 2371 692)"/><path d="M60.9583 161.104 148.042 161.104 148.042 165.458 60.9583 165.458Z" transform="matrix(1.00478 0 0 1 2371 692)"/><path d="M39.1875 17.4167 39.1875 191.583 169.812 191.583 169.812 64.4112 122.818 17.4167ZM124.131 24.8862 162.343 63.0984C162.351 63.1069 162.351 63.1208 162.343 63.1291 162.339 63.133 162.333 63.1354 162.328 63.1354L124.094 63.1354 124.094 24.9015C124.094 24.8895 124.104 24.8799 124.116 24.8799 124.121 24.8801 124.127 24.8823 124.131 24.8862ZM43.5417 187.229 43.5417 21.7708 119.74 21.7708 119.74 67.4896 165.458 67.4896 165.458 187.229Z" transform="matrix(1.00478 0 0 1 2371 692)"/></g></g></g><rect x="2434" y="687" width="127" height="169" fill="#FFFFFF"/><g clip-path="url(#clip10)"><g clip-path="url(#clip11)"><g clip-path="url(#clip12)"><path d="M60.9583 91.4375 148.042 91.4375 148.042 95.7917 60.9583 95.7917Z" transform="matrix(1.00478 0 0 1 2392 668)"/><path d="M60.9583 74.0208 102.323 74.0208 102.323 78.375 60.9583 78.375Z" transform="matrix(1.00478 0 0 1 2392 668)"/><path d="M60.9583 108.854 148.042 108.854 148.042 113.208 60.9583 113.208Z" transform="matrix(1.00478 0 0 1 2392 668)"/><path d="M60.9583 126.271 148.042 126.271 148.042 130.625 60.9583 130.625Z" transform="matrix(1.00478 0 0 1 2392 668)"/><path d="M60.9583 143.688 148.042 143.688 148.042 148.042 60.9583 148.042Z" transform="matrix(1.00478 0 0 1 2392 668)"/><path d="M60.9583 161.104 148.042 161.104 148.042 165.458 60.9583 165.458Z" transform="matrix(1.00478 0 0 1 2392 668)"/><path d="M39.1875 17.4167 39.1875 191.583 169.812 191.583 169.812 64.4112 122.818 17.4167ZM124.131 24.8862 162.343 63.0984C162.351 63.1069 162.351 63.1208 162.343 63.1291 162.339 63.133 162.333 63.1354 162.328 63.1354L124.094 63.1354 124.094 24.9015C124.094 24.8895 124.104 24.8799 124.116 24.8799 124.121 24.8801 124.127 24.8823 124.131 24.8862ZM43.5417 187.229 43.5417 21.7708 119.74 21.7708 119.74 67.4896 165.458 67.4896 165.458 187.229Z" transform="matrix(1.00478 0 0 1 2392 668)"/></g></g></g><text font-family="Yu Gothic,Yu Gothic_MSFontService,sans-serif" font-weight="400" font-size="48" transform="matrix(1 0 0 1 1378.15 1050)">scatter</text><text font-family="Yu Gothic,Yu Gothic_MSFontService,sans-serif" font-weight="400" font-size="48" transform="matrix(1 0 0 1 2142.57 1059)">gather</text></g></svg>