<svg width="1788" height="785" xmlns="http://www.w3.org/2000/svg" xmlns:xlink="http://www.w3.org/1999/xlink" xml:space="preserve" overflow="hidden"><defs><clipPath id="clip0"><rect x="626" y="115" width="1788" height="785"/></clipPath><clipPath id="clip1"><rect x="750" y="546" width="89" height="88"/></clipPath><clipPath id="clip2"><rect x="750" y="546" width="89" height="88"/></clipPath><clipPath id="clip3"><rect x="750" y="546" width="89" height="88"/></clipPath><clipPath id="clip4"><rect x="1699" y="548" width="110" height="110"/></clipPath><clipPath id="clip5"><rect x="1699" y="548" width="110" height="110"/></clipPath><clipPath id="clip6"><rect x="1699" y="548" width="110" height="110"/></clipPath><clipPath id="clip7"><rect x="1710" y="536" width="109" height="110"/></clipPath><clipPath id="clip8"><rect x="1710" y="536" width="109" height="110"/></clipPath><clipPath id="clip9"><rect x="1710" y="536" width="109" height="110"/></clipPath><clipPath id="clip10"><rect x="1720" y="523" width="110" height="110"/></clipPath><clipPath id="clip11"><rect x="1720" y="523" width="110" height="110"/></clipPath><clipPath id="clip12"><rect x="1720" y="523" width="110" height="110"/></clipPath></defs><g clip-path="url(#clip0)" transform="translate(-626 -115)"><rect x="664.5" y="222.5" width="274" height="675" stroke="#595959" stroke-width="4.58333" stroke-miterlimit="8" fill="#FFFFFF"/><text fill="#404040" font-family="Yu Gothic,Yu Gothic_MSFontService,sans-serif" font-weight="400" font-size="48" transform="matrix(1 0 0 1 697.14 282)">PS0</text><g clip-path="url(#clip1)"><g clip-path="url(#clip2)"><g clip-path="url(#clip3)"><path d="M25.375 38.0625 61.625 38.0625 61.625 39.875 25.375 39.875Z" transform="matrix(1.01149 0 0 1 750 547)"/><path d="M25.375 30.8125 42.5937 30.8125 42.5937 32.625 25.375 32.625Z" transform="matrix(1.01149 0 0 1 750 547)"/><path d="M25.375 45.3125 61.625 45.3125 61.625 47.125 25.375 47.125Z" transform="matrix(1.01149 0 0 1 750 547)"/><path d="M25.375 52.5625 61.625 52.5625 61.625 54.375 25.375 54.375Z" transform="matrix(1.01149 0 0 1 750 547)"/><path d="M25.375 59.8125 61.625 59.8125 61.625 61.625 25.375 61.625Z" transform="matrix(1.01149 0 0 1 750 547)"/><path d="M25.375 67.0625 61.625 67.0625 61.625 68.875 25.375 68.875Z" transform="matrix(1.01149 0 0 1 750 547)"/><path d="M16.3125 7.25 16.3125 79.75 70.6875 79.75 70.6875 26.8123 51.1252 7.25ZM51.6716 10.3593 67.5781 26.2658C67.5817 26.2694 67.5816 26.2752 67.578 26.2786 67.5763 26.2802 67.5741 26.2812 67.5718 26.2812L51.6562 26.2812 51.6562 10.3657C51.6563 10.3607 51.6604 10.3567 51.6654 10.3567 51.6677 10.3568 51.67 10.3577 51.6716 10.3593ZM18.125 77.9375 18.125 9.0625 49.8437 9.0625 49.8437 28.0937 68.875 28.0937 68.875 77.9375Z" transform="matrix(1.01149 0 0 1 750 547)"/></g></g></g><rect x="1015.5" y="222.5" width="422" height="209" stroke="#595959" stroke-width="4.58333" stroke-miterlimit="8" fill="#FFFFFF"/><text fill="#404040" font-family="Yu Gothic,Yu Gothic_MSFontService,sans-serif" font-weight="400" font-size="48" transform="matrix(1 0 0 1 1047.97 283)">PS0 (</text><text fill="#404040" font-family="Yu Gothic,Yu Gothic_MSFontService,sans-serif" font-weight="400" font-size="48" transform="matrix(1 0 0 1 1169.42 283)">paraA</text><text fill="#404040" font-family="Yu Gothic,Yu Gothic_MSFontService,sans-serif" font-weight="400" font-size="48" transform="matrix(1 0 0 1 1300.62 283)">=1)</text><text font-family="Yu Gothic,Yu Gothic_MSFontService,sans-serif" font-weight="400" font-size="55" text-decoration="underline" transform="matrix(1 0 0 1 659.931 182)">scatter</text><rect x="692.5" y="317.5" width="190" height="91.9998" stroke="#595959" stroke-width="4.58333" stroke-miterlimit="8" fill="#FFFFFF"/><text fill="#404040" font-family="Yu Gothic,Yu Gothic_MSFontService,sans-serif" font-weight="400" font-size="48" transform="matrix(1 0 0 1 725.494 378)">task0</text><rect x="1057.5" y="312.5" width="189" height="92.0001" stroke="#595959" stroke-width="4.58333" stroke-miterlimit="8" fill="#FFFFFF"/><text fill="#404040" font-family="Yu Gothic,Yu Gothic_MSFontService,sans-serif" font-weight="400" font-size="48" transform="matrix(1 0 0 1 1090.2 373)">task0</text><rect x="1015.5" y="455.5" width="422" height="208" stroke="#595959" stroke-width="4.58333" stroke-miterlimit="8" fill="#FFFFFF"/><text fill="#404040" font-family="Yu Gothic,Yu Gothic_MSFontService,sans-serif" font-weight="400" font-size="48" transform="matrix(1 0 0 1 1047.97 515)">PS0 (</text><text fill="#404040" font-family="Yu Gothic,Yu Gothic_MSFontService,sans-serif" font-weight="400" font-size="48" transform="matrix(1 0 0 1 1169.42 515)">paraA</text><text fill="#404040" font-family="Yu Gothic,Yu Gothic_MSFontService,sans-serif" font-weight="400" font-size="48" transform="matrix(1 0 0 1 1300.62 515)">=2)</text><rect x="1057.5" y="545.5" width="189" height="91.0001" stroke="#595959" stroke-width="4.58333" stroke-miterlimit="8" fill="#FFFFFF"/><text fill="#404040" font-family="Yu Gothic,Yu Gothic_MSFontService,sans-serif" font-weight="400" font-size="48" transform="matrix(1 0 0 1 1090.2 605)">task0</text><rect x="1015.5" y="688.5" width="422" height="209" stroke="#595959" stroke-width="4.58333" stroke-miterlimit="8" fill="#FFFFFF"/><text fill="#404040" font-family="Yu Gothic,Yu Gothic_MSFontService,sans-serif" font-weight="400" font-size="48" transform="matrix(1 0 0 1 1047.97 749)">PS0 (</text><text fill="#404040" font-family="Yu Gothic,Yu Gothic_MSFontService,sans-serif" font-weight="400" font-size="48" transform="matrix(1 0 0 1 1169.42 749)">paraA</text><text fill="#404040" font-family="Yu Gothic,Yu Gothic_MSFontService,sans-serif" font-weight="400" font-size="48" transform="matrix(1 0 0 1 1300.62 749)">=3)</text><rect x="1057.5" y="778.5" width="189" height="91.9998" stroke="#595959" stroke-width="4.58333" stroke-miterlimit="8" fill="#FFFFFF"/><text fill="#404040" font-family="Yu Gothic,Yu Gothic_MSFontService,sans-serif" font-weight="400" font-size="48" transform="matrix(1 0 0 1 1090.2 839)">task0</text><path d="M0.833385-0.786386 218.662 230.061 216.996 231.634-0.833385 0.786386ZM211.739 199.578 219.39 232.502 186.965 222.955C186.358 222.776 186.011 222.139 186.189 221.532 186.368 220.925 187.005 220.578 187.612 220.757L218.153 229.748 216.713 231.107 209.507 200.096C209.364 199.48 209.748 198.864 210.364 198.721 210.98 198.578 211.596 198.961 211.739 199.578Z" transform="matrix(1 0 0 -1 838 590.498)"/><path d="M838 588.854 1055.12 588.854 1055.12 591.146 838 591.146ZM1028.19 572.969 1057.39 590 1028.19 607.032C1027.65 607.35 1026.95 607.166 1026.63 606.619 1026.31 606.073 1026.49 605.371 1027.04 605.052L1054.54 589.01 1054.54 590.99 1027.04 574.948C1026.49 574.629 1026.31 573.928 1026.63 573.381 1026.95 572.835 1027.65 572.65 1028.19 572.969Z"/><path d="M838.835 589.215 1056.67 820.953 1055 822.523 837.165 590.785ZM1049.8 790.457 1057.39 823.395 1024.98 813.786C1024.38 813.607 1024.03 812.969 1024.21 812.362 1024.39 811.755 1025.03 811.409 1025.63 811.589L1056.16 820.64 1054.72 821.995 1047.57 790.971C1047.43 790.354 1047.81 789.739 1048.43 789.597 1049.05 789.455 1049.66 789.84 1049.8 790.457Z"/><rect x="1638.5" y="222.5" width="274" height="675" stroke="#595959" stroke-width="4.58333" stroke-miterlimit="8" fill="#FFFFFF"/><text fill="#404040" font-family="Yu Gothic,Yu Gothic_MSFontService,sans-serif" font-weight="400" font-size="48" transform="matrix(1 0 0 1 1670.99 282)">PS0</text><rect x="1989.5" y="222.5" width="422" height="209" stroke="#595959" stroke-width="4.58333" stroke-miterlimit="8" fill="#FFFFFF"/><text fill="#404040" font-family="Yu Gothic,Yu Gothic_MSFontService,sans-serif" font-weight="400" font-size="48" transform="matrix(1 0 0 1 2021.81 283)">PS0 (</text><text fill="#404040" font-family="Yu Gothic,Yu Gothic_MSFontService,sans-serif" font-weight="400" font-size="48" transform="matrix(1 0 0 1 2143.27 283)">paraA</text><text fill="#404040" font-family="Yu Gothic,Yu Gothic_MSFontService,sans-serif" font-weight="400" font-size="48" transform="matrix(1 0 0 1 2274.47 283)">=1)</text><text font-family="Yu Gothic,Yu Gothic_MSFontService,sans-serif" font-weight="400" font-size="55" text-decoration="underline" transform="matrix(1 0 0 1 1633.78 182)">gather</text><rect x="1666.5" y="317.5" width="190" height="91.9998" stroke="#595959" stroke-width="4.58333" stroke-miterlimit="8" fill="#FFFFFF"/><text fill="#404040" font-family="Yu Gothic,Yu Gothic_MSFontService,sans-serif" font-weight="400" font-size="48" transform="matrix(1 0 0 1 1699.34 378)">task0</text><rect x="2031.5" y="312.5" width="189" height="92.0001" stroke="#595959" stroke-width="4.58333" stroke-miterlimit="8" fill="#FFFFFF"/><text fill="#404040" font-family="Yu Gothic,Yu Gothic_MSFontService,sans-serif" font-weight="400" font-size="48" transform="matrix(1 0 0 1 2064.05 373)">task0</text><rect x="1989.5" y="455.5" width="422" height="208" stroke="#595959" stroke-width="4.58333" stroke-miterlimit="8" fill="#FFFFFF"/><text fill="#404040" font-family="Yu Gothic,Yu Gothic_MSFontService,sans-serif" font-weight="400" font-size="48" transform="matrix(1 0 0 1 2021.81 515)">PS0 (</text><text fill="#404040" font-family="Yu Gothic,Yu Gothic_MSFontService,sans-serif" font-weight="400" font-size="48" transform="matrix(1 0 0 1 2143.27 515)">paraA</text><text fill="#404040" font-family="Yu Gothic,Yu Gothic_MSFontService,sans-serif" font-weight="400" font-size="48" transform="matrix(1 0 0 1 2274.47 515)">=2)</text><rect x="2031.5" y="545.5" width="189" height="91.0001" stroke="#595959" stroke-width="4.58333" stroke-miterlimit="8" fill="#FFFFFF"/><text fill="#404040" font-family="Yu Gothic,Yu Gothic_MSFontService,sans-serif" font-weight="400" font-size="48" transform="matrix(1 0 0 1 2064.05 605)">task0</text><rect x="1989.5" y="688.5" width="422" height="209" stroke="#595959" stroke-width="4.58333" stroke-miterlimit="8" fill="#FFFFFF"/><text fill="#404040" font-family="Yu Gothic,Yu Gothic_MSFontService,sans-serif" font-weight="400" font-size="48" transform="matrix(1 0 0 1 2021.81 749)">PS0 (</text><text fill="#404040" font-family="Yu Gothic,Yu Gothic_MSFontService,sans-serif" font-weight="400" font-size="48" transform="matrix(1 0 0 1 2143.27 749)">paraA</text><text fill="#404040" font-family="Yu Gothic,Yu Gothic_MSFontService,sans-serif" font-weight="400" font-size="48" transform="matrix(1 0 0 1 2274.47 749)">=3)</text><rect x="2031.5" y="778.5" width="189" height="91.9998" stroke="#595959" stroke-width="4.58333" stroke-miterlimit="8" fill="#FFFFFF"/><text fill="#404040" font-family="Yu Gothic,Yu Gothic_MSFontService,sans-serif" font-weight="400" font-size="48" transform="matrix(1 0 0 1 2064.05 839)">task0</text><path d="M2.48367 0.539793 207.087 166.569 205.643 168.348 1.03967 2.31929ZM11.9357 31.6188-0.00412365-0.00334618 33.399 5.16877C34.0243 5.2656 34.4528 5.85106 34.356 6.47644 34.2591 7.10181 33.6737 7.53028 33.0483 7.43345L1.58637 2.5619 2.83367 1.02481 14.0796 30.8093C14.3031 31.4013 14.0044 32.0625 13.4124 32.286 12.8203 32.5095 12.1592 32.2108 11.9357 31.6188Z" transform="matrix(1 0 0 -1 1825 525.458)"/><path d="M1814.27 588.854 2031.39 588.854 2031.39 591.146 1814.27 591.146ZM1841.19 607.031 1811.99 590 1841.19 572.969C1841.74 572.65 1842.44 572.834 1842.76 573.381 1843.08 573.928 1842.89 574.629 1842.35 574.948L1814.85 590.99 1814.85 589.01 1842.35 605.052C1842.89 605.371 1843.08 606.072 1842.76 606.619 1842.44 607.166 1841.74 607.35 1841.19 607.031Z"/><path d="M1820.48 652.537 2031.35 823.373 2029.91 825.154 1819.04 654.317ZM1829.96 683.609 1818 651.997 1851.4 657.142C1852.03 657.238 1852.46 657.824 1852.36 658.449 1852.26 659.075 1851.68 659.503 1851.05 659.407L1819.59 654.561 1820.83 653.023 1832.1 682.798C1832.33 683.39 1832.03 684.051 1831.44 684.275 1830.85 684.499 1830.19 684.201 1829.96 683.609Z"/><rect x="1721" y="560" width="66" height="86.9999" fill="#FFFFFF"/><g clip-path="url(#clip4)"><g clip-path="url(#clip5)"><g clip-path="url(#clip6)"><path d="M1730.79 596.687 1776.21 596.687 1776.21 598.958 1730.79 598.958Z"/><path d="M1730.79 587.604 1752.36 587.604 1752.36 589.875 1730.79 589.875Z"/><path d="M1730.79 605.771 1776.21 605.771 1776.21 608.042 1730.79 608.042Z"/><path d="M1730.79 614.854 1776.21 614.854 1776.21 617.125 1730.79 617.125Z"/><path d="M1730.79 623.937 1776.21 623.937 1776.21 626.208 1730.79 626.208Z"/><path d="M1730.79 633.021 1776.21 633.021 1776.21 635.292 1730.79 635.292Z"/><path d="M1719.44 558.083 1719.44 648.917 1787.56 648.917 1787.56 582.592 1763.05 558.083ZM1763.74 561.979 1783.67 581.908C1783.67 581.912 1783.67 581.919 1783.67 581.924 1783.66 581.926 1783.66 581.927 1783.66 581.927L1763.72 581.927 1763.72 561.987C1763.72 561.981 1763.72 561.976 1763.73 561.976 1763.73 561.976 1763.74 561.977 1763.74 561.979ZM1721.71 646.646 1721.71 560.354 1761.45 560.354 1761.45 584.198 1785.29 584.198 1785.29 646.646Z"/></g></g></g><rect x="1732" y="547" width="65" height="87" fill="#FFFFFF"/><g clip-path="url(#clip7)"><g clip-path="url(#clip8)"><g clip-path="url(#clip9)"><path d="M31.5 47.25 76.5 47.25 76.5 49.5 31.5 49.5Z" transform="matrix(1 0 0 1.00926 1710 537)"/><path d="M31.5 38.25 52.875 38.25 52.875 40.5 31.5 40.5Z" transform="matrix(1 0 0 1.00926 1710 537)"/><path d="M31.5 56.25 76.5 56.25 76.5 58.5 31.5 58.5Z" transform="matrix(1 0 0 1.00926 1710 537)"/><path d="M31.5 65.25 76.5 65.25 76.5 67.5 31.5 67.5Z" transform="matrix(1 0 0 1.00926 1710 537)"/><path d="M31.5 74.25 76.5 74.25 76.5 76.5 31.5 76.5Z" transform="matrix(1 0 0 1.00926 1710 537)"/><path d="M31.5 83.2499 76.5 83.2499 76.5 85.4999 31.5 85.4999Z" transform="matrix(1 0 0 1.00926 1710 537)"/><path d="M20.25 8.99999 20.25 98.9999 87.7499 98.9999 87.7499 33.2842 63.4657 8.99999ZM64.1441 12.8599 83.8901 32.6059C83.8945 32.6102 83.8943 32.6174 83.89 32.6217 83.8878 32.6237 83.8851 32.625 83.8822 32.625L64.125 32.625 64.125 12.8677C64.1251 12.8616 64.1301 12.8566 64.1363 12.8566 64.1392 12.8567 64.1421 12.8578 64.1441 12.8599ZM22.5 96.7499 22.5 11.25 61.875 11.25 61.875 34.875 85.4999 34.875 85.4999 96.7499Z" transform="matrix(1 0 0 1.00926 1710 537)"/></g></g></g><rect x="1742" y="535" width="66" height="87" fill="#FFFFFF"/><g clip-path="url(#clip10)"><g clip-path="url(#clip11)"><g clip-path="url(#clip12)"><path d="M1751.79 571.687 1797.21 571.687 1797.21 573.958 1751.79 573.958Z"/><path d="M1751.79 562.604 1773.36 562.604 1773.36 564.875 1751.79 564.875Z"/><path d="M1751.79 580.771 1797.21 580.771 1797.21 583.042 1751.79 583.042Z"/><path d="M1751.79 589.854 1797.21 589.854 1797.21 592.125 1751.79 592.125Z"/><path d="M1751.79 598.937 1797.21 598.937 1797.21 601.208 1751.79 601.208Z"/><path d="M1751.79 608.021 1797.21 608.021 1797.21 610.292 1751.79 610.292Z"/><path d="M1740.44 533.083 1740.44 623.917 1808.56 623.917 1808.56 557.592 1784.05 533.083ZM1784.74 536.979 1804.67 556.908C1804.67 556.912 1804.67 556.919 1804.67 556.924 1804.66 556.926 1804.66 556.927 1804.66 556.927L1784.72 556.927 1784.72 536.987C1784.72 536.981 1784.72 536.976 1784.73 536.976 1784.73 536.976 1784.74 536.977 1784.74 536.979ZM1742.71 621.646 1742.71 535.354 1782.45 535.354 1782.45 559.198 1806.29 559.198 1806.29 621.646Z"/></g></g></g></g></svg>