<svg width="3496" height="724" xmlns="http://www.w3.org/2000/svg" xmlns:xlink="http://www.w3.org/1999/xlink" xml:space="preserve" overflow="hidden"><defs><clipPath id="clip0"><rect x="669" y="1100" width="3496" height="724"/></clipPath></defs><g clip-path="url(#clip0)" transform="translate(-669 -1100)"><path d="M1590 1155.65C1590 1124.92 1614.92 1100 1645.65 1100L3241.35 1100C3272.08 1100 3297 1124.92 3297 1155.65L3297 1768.35C3297 1799.08 3272.08 1824 3241.35 1824L1645.65 1824C1614.92 1824 1590 1799.08 1590 1768.35Z" fill="#BFBFBF" fill-rule="evenodd"/><text fill="#FFFFFF" font-family="Meiryo UI,Meiryo UI_MSFontService,sans-serif" font-weight="400" font-size="83" transform="matrix(1 0 0 1 1638.87 1215)">サーバ</text><path d="M1643 1684.78C1643 1667.23 1657.23 1653 1674.78 1653L3220.22 1653C3237.77 1653 3252 1667.23 3252 1684.78L3252 1725.22C3252 1742.77 3237.77 1757 3220.22 1757L1674.78 1757C1657.23 1757 1643 1742.77 1643 1725.22Z" fill="#FFFFFF" fill-rule="evenodd"/><text font-family="Meiryo UI,Meiryo UI_MSFontService,sans-serif" font-weight="400" font-size="55" transform="matrix(1 0 0 1 2354.26 1727)">Docker</text><path d="M1643 1272.57C1643 1252.92 1658.92 1237 1678.57 1237L2397.43 1237C2417.08 1237 2433 1252.92 2433 1272.57L2433 1589.43C2433 1609.08 2417.08 1625 2397.43 1625L1678.57 1625C1658.92 1625 1643 1609.08 1643 1589.43Z" fill="#FFFFFF" fill-rule="evenodd"/><text font-family="Meiryo UI,Meiryo UI_MSFontService,sans-serif" font-weight="400" font-size="55" transform="matrix(1 0 0 1 1913.54 1587)">container</text><path d="M1671 1308.31C1671 1287.15 1688.15 1270 1709.31 1270L2366.69 1270C2387.85 1270 2405 1287.15 2405 1308.31L2405 1480.69C2405 1501.85 2387.85 1519 2366.69 1519L1709.31 1519C1688.15 1519 1671 1501.85 1671 1480.69Z" fill="#FF9999" fill-rule="evenodd"/><text fill="#FFFFFF" font-family="Meiryo UI,Meiryo UI_MSFontService,sans-serif" font-weight="400" font-size="73" transform="matrix(1 0 0 1 1908.67 1423)">WHEEL</text><path d="M2462 1272.57C2462 1252.92 2477.92 1237 2497.57 1237L3216.43 1237C3236.08 1237 3252 1252.92 3252 1272.57L3252 1589.43C3252 1609.08 3236.08 1625 3216.43 1625L2497.57 1625C2477.92 1625 2462 1609.08 2462 1589.43Z" fill="#FFFFFF" fill-rule="evenodd"/><text font-family="Meiryo UI,Meiryo UI_MSFontService,sans-serif" font-weight="400" font-size="55" transform="matrix(1 0 0 1 2732.53 1587)">container</text><path d="M2490 1308.31C2490 1287.15 2507.15 1270 2528.31 1270L3185.69 1270C3206.85 1270 3224 1287.15 3224 1308.31L3224 1480.69C3224 1501.85 3206.85 1519 3185.69 1519L2528.31 1519C2507.15 1519 2490 1501.85 2490 1480.69Z" fill="#FF9999" fill-rule="evenodd"/><text fill="#FFFFFF" font-family="Meiryo UI,Meiryo UI_MSFontService,sans-serif" font-weight="400" font-size="73" transform="matrix(1 0 0 1 2727.66 1423)">WHEEL</text><path d="M4049 1346.5C4049 1321.37 4069.37 1301 4094.5 1301 4119.63 1301 4140 1321.37 4140 1346.5 4140 1371.63 4119.63 1392 4094.5 1392 4069.37 1392 4049 1371.63 4049 1346.5Z" fill="#A6A6A6" fill-rule="evenodd"/><path d="M4060.28 1401 4129.72 1401C4149.21 1401 4165 1416.83 4165 1436.37L4165 1495 4025 1495 4025 1436.37C4025 1416.83 4040.79 1401 4060.28 1401Z" fill="#A6A6A6" fill-rule="evenodd"/><path d="M1.35188e-05-5.15625 111.868-5.15596 111.868 5.15654-1.35188e-05 5.15625ZM106.712-15.4685 137.649 0.000360892 106.712 15.469Z" fill="#A6A6A6" transform="matrix(-1 0 0 1 3985.65 1398)"/><path d="M3367 1232.98C3367 1216.42 3380.42 1203 3396.98 1203L3818.02 1203C3834.58 1203 3848 1216.42 3848 1232.98L3848 1563.02C3848 1579.58 3834.58 1593 3818.02 1593L3396.98 1593C3380.42 1593 3367 1579.58 3367 1563.02Z" fill="#BFBFBF" fill-rule="evenodd"/><text fill="#FFFFFF" font-family="Meiryo UI,Meiryo UI_MSFontService,sans-serif" font-weight="400" font-size="83" transform="matrix(1 0 0 1 3408.49 1311)">ブラウザ</text><path d="M693 1346.5C693 1321.37 713.371 1301 738.5 1301 763.629 1301 784 1321.37 784 1346.5 784 1371.63 763.629 1392 738.5 1392 713.371 1392 693 1371.63 693 1346.5Z" fill="#A6A6A6" fill-rule="evenodd"/><path d="M704.276 1401 773.724 1401C793.206 1401 809 1416.83 809 1436.37L809 1495 669 1495 669 1436.37C669 1416.83 684.793 1401 704.276 1401Z" fill="#A6A6A6" fill-rule="evenodd"/><path d="M857 1392.84 968.868 1392.84 968.868 1403.16 857 1403.16ZM963.712 1382.53 994.649 1398 963.711 1413.47Z" fill="#A6A6A6"/><path d="M1041 1232.98C1041 1216.42 1054.42 1203 1070.98 1203L1493.02 1203C1509.58 1203 1523 1216.42 1523 1232.98L1523 1563.02C1523 1579.58 1509.58 1593 1493.02 1593L1070.98 1593C1054.42 1593 1041 1579.58 1041 1563.02Z" fill="#BFBFBF" fill-rule="evenodd"/><text fill="#FFFFFF" font-family="Meiryo UI,Meiryo UI_MSFontService,sans-serif" font-weight="400" font-size="83" transform="matrix(1 0 0 1 1083.22 1311)">ブラウザ</text><path d="M1542 1392.84 1702.06 1392.84 1702.06 1403.16 1542 1403.16ZM1696.9 1382.53 1727.84 1398 1696.9 1413.47Z" fill="#A6A6A6"/><path d="M1.00133e-05-5.15625 160.057-5.15594 160.057 5.15656-1.00133e-05 5.15625ZM154.9-15.4684 185.838 0.000360892 154.9 15.4691Z" fill="#A6A6A6" transform="matrix(-1 0 0 1 3345.84 1398)"/></g></svg>