<?xml version="1.0" encoding="UTF-8" standalone="no"?>
<svg
   width="496.75"
   height="384.25"
   xml:space="preserve"
   overflow="hidden"
   version="1.1"
   id="svg18"
   sodipodi:docname="configuration_pattern_01.svg"
   inkscape:version="1.3 (0e150ed6c4, 2023-07-21)"
   xmlns:inkscape="http://www.inkscape.org/namespaces/inkscape"
   xmlns:sodipodi="http://sodipodi.sourceforge.net/DTD/sodipodi-0.dtd"
   xmlns="http://www.w3.org/2000/svg"
   xmlns:svg="http://www.w3.org/2000/svg"><sodipodi:namedview
     id="namedview18"
     pagecolor="#ffffff"
     bordercolor="#000000"
     borderopacity="0.25"
     inkscape:showpageshadow="2"
     inkscape:pageopacity="0.0"
     inkscape:pagecheckerboard="0"
     inkscape:deskcolor="#d1d1d1"
     inkscape:zoom="0.54586858"
     inkscape:cx="247.31228"
     inkscape:cy="191.43802"
     inkscape:window-width="1920"
     inkscape:window-height="1017"
     inkscape:window-x="-8"
     inkscape:window-y="-8"
     inkscape:window-maximized="1"
     inkscape:current-layer="svg18" /><defs
     id="defs1"><clipPath
       id="clip0"><rect
         x="1163"
         y="602"
         width="1987"
         height="1537"
         id="rect1" /></clipPath></defs><g
     clip-path="url(#clip0)"
     transform="matrix(0.25,0,0,0.25,-290.75,-150.5)"
     id="g18"><path
       d="M 2253,657.653 C 2253,626.917 2277.92,602 2308.65,602 h 785.7 c 30.73,0 55.65,24.917 55.65,55.653 v 612.697 c 0,30.73 -24.92,55.65 -55.65,55.65 h -785.7 c -30.73,0 -55.65,-24.92 -55.65,-55.65 z"
       fill="#bfbfbf"
       fill-rule="evenodd"
       id="path1" /><text
       fill="#ffffff"
       font-family="'Meiryo UI', 'Meiryo UI_MSFontService', sans-serif"
       font-weight="400"
       font-size="83px"
       transform="translate(2301.89,717)"
       id="text1">PC</text><path
       d="m 2306,1186.78 c 0,-17.55 14.23,-31.78 31.78,-31.78 h 726.44 c 17.55,0 31.78,14.23 31.78,31.78 v 40.44 c 0,17.55 -14.23,31.78 -31.78,31.78 h -726.44 c -17.55,0 -31.78,-14.23 -31.78,-31.78 z"
       fill="#ffffff"
       fill-rule="evenodd"
       id="path2" /><text
       font-family="'Meiryo UI', 'Meiryo UI_MSFontService', sans-serif"
       font-weight="400"
       font-size="55px"
       transform="translate(2607.79,1229)"
       id="text2">Docker</text><path
       d="M 2306,774.568 C 2306,754.924 2321.92,739 2341.57,739 h 718.86 c 19.65,0 35.57,15.924 35.57,35.568 v 316.862 c 0,19.65 -15.92,35.57 -35.57,35.57 h -718.86 c -19.65,0 -35.57,-15.92 -35.57,-35.57 z"
       fill="#ffffff"
       fill-rule="evenodd"
       id="path3" /><text
       font-family="'Meiryo UI', 'Meiryo UI_MSFontService', sans-serif"
       font-weight="400"
       font-size="55px"
       transform="translate(2576.57,1089)"
       id="text3">container</text><path
       d="M 2334,810.306 C 2334,789.15 2351.15,772 2372.31,772 h 657.38 c 21.16,0 38.31,17.15 38.31,38.306 v 172.388 c 0,21.156 -17.15,38.306 -38.31,38.306 h -657.38 c -21.16,0 -38.31,-17.15 -38.31,-38.306 z"
       fill="#ff9999"
       fill-rule="evenodd"
       id="path4" /><text
       fill="#ffffff"
       font-family="'Meiryo UI', 'Meiryo UI_MSFontService', sans-serif"
       font-weight="400"
       font-size="73px"
       transform="translate(2571.7,925)"
       id="text4">WHEEL</text><path
       d="m 1188,912.5 c 0,-25.129 20.37,-45.5 45.5,-45.5 25.13,0 45.5,20.371 45.5,45.5 0,25.129 -20.37,45.5 -45.5,45.5 -25.13,0 -45.5,-20.371 -45.5,-45.5 z"
       fill="#a6a6a6"
       fill-rule="evenodd"
       id="path5" /><path
       d="m 1198.28,967 h 69.44 c 19.49,0 35.28,15.834 35.28,35.37 V 1061 h -140 v -58.63 c 0,-19.536 15.79,-35.37 35.28,-35.37 z"
       fill="#a6a6a6"
       fill-rule="evenodd"
       id="path6" /><path
       d="m 1351,958.844 h 111.87 v 10.312 H 1351 Z m 106.71,-10.313 30.94,15.469 -30.94,15.469 z"
       fill="#a6a6a6"
       id="path7" /><path
       d="m 1537,798.056 c 0,-16.6 13.46,-30.056 30.06,-30.056 h 421.88 c 16.6,0 30.06,13.456 30.06,30.056 v 330.884 c 0,16.6 -13.46,30.06 -30.06,30.06 h -421.88 c -16.6,0 -30.06,-13.46 -30.06,-30.06 z"
       fill="#bfbfbf"
       fill-rule="evenodd"
       id="path8" /><text
       fill="#ffffff"
       font-family="'Meiryo UI', 'Meiryo UI_MSFontService', sans-serif"
       font-weight="400"
       font-size="83px"
       transform="translate(1578.87,877)"
       id="text8">ブラウザ</text><path
       d="m 2067,958.844 h 111.87 v 10.312 H 2067 Z m 106.71,-10.313 30.94,15.469 -30.94,15.469 z"
       fill="#a6a6a6"
       id="path9" /><path
       d="m 2253,1469.73 c 0,-30.78 24.95,-55.73 55.73,-55.73 h 785.54 c 30.78,0 55.73,24.95 55.73,55.73 v 613.54 c 0,30.78 -24.95,55.73 -55.73,55.73 h -785.54 c -30.78,0 -55.73,-24.95 -55.73,-55.73 z"
       fill="#bfbfbf"
       fill-rule="evenodd"
       id="path10" /><text
       fill="#ffffff"
       font-family="'Meiryo UI', 'Meiryo UI_MSFontService', sans-serif"
       font-weight="400"
       font-size="83px"
       transform="translate(2301.89,1530)"
       id="text10">PC</text><path
       d="m 2306,1999.78 c 0,-17.55 14.23,-31.78 31.78,-31.78 h 726.44 c 17.55,0 31.78,14.23 31.78,31.78 v 40.44 c 0,17.55 -14.23,31.78 -31.78,31.78 h -726.44 c -17.55,0 -31.78,-14.23 -31.78,-31.78 z"
       fill="#ffffff"
       fill-rule="evenodd"
       id="path11" /><text
       font-family="'Meiryo UI', 'Meiryo UI_MSFontService', sans-serif"
       font-weight="400"
       font-size="55px"
       transform="translate(2607.79,2042)"
       id="text11">Docker</text><path
       d="m 2306,1587.57 c 0,-19.65 15.92,-35.57 35.57,-35.57 h 718.86 c 19.65,0 35.57,15.92 35.57,35.57 v 316.86 c 0,19.65 -15.92,35.57 -35.57,35.57 h -718.86 c -19.65,0 -35.57,-15.92 -35.57,-35.57 z"
       fill="#ffffff"
       fill-rule="evenodd"
       id="path12" /><text
       font-family="'Meiryo UI', 'Meiryo UI_MSFontService', sans-serif"
       font-weight="400"
       font-size="55px"
       transform="translate(2576.57,1902)"
       id="text12">container</text><path
       d="m 2334,1623.31 c 0,-21.16 17.15,-38.31 38.31,-38.31 h 657.38 c 21.16,0 38.31,17.15 38.31,38.31 v 172.38 c 0,21.16 -17.15,38.31 -38.31,38.31 h -657.38 c -21.16,0 -38.31,-17.15 -38.31,-38.31 z"
       fill="#ff9999"
       fill-rule="evenodd"
       id="path13" /><text
       fill="#ffffff"
       font-family="'Meiryo UI', 'Meiryo UI_MSFontService', sans-serif"
       font-weight="400"
       font-size="73px"
       transform="translate(2571.7,1738)"
       id="text13">WHEEL</text><path
       d="m 1188,1725.5 c 0,-25.13 20.37,-45.5 45.5,-45.5 25.13,0 45.5,20.37 45.5,45.5 0,25.13 -20.37,45.5 -45.5,45.5 -25.13,0 -45.5,-20.37 -45.5,-45.5 z"
       fill="#a6a6a6"
       fill-rule="evenodd"
       id="path14" /><path
       d="m 1198.28,1780 h 69.44 c 19.49,0 35.28,15.67 35.28,34.99 V 1873 h -140 v -58.01 c 0,-19.32 15.79,-34.99 35.28,-34.99 z"
       fill="#a6a6a6"
       fill-rule="evenodd"
       id="path15" /><path
       d="m 1351,1771.84 h 111.87 v 10.32 H 1351 Z m 106.71,-10.31 30.94,15.47 -30.94,15.47 z"
       fill="#a6a6a6"
       id="path16" /><path
       d="m 1537,1611.06 c 0,-16.6 13.46,-30.06 30.06,-30.06 h 421.88 c 16.6,0 30.06,13.46 30.06,30.06 v 330.88 c 0,16.6 -13.46,30.06 -30.06,30.06 h -421.88 c -16.6,0 -30.06,-13.46 -30.06,-30.06 z"
       fill="#bfbfbf"
       fill-rule="evenodd"
       id="path17" /><text
       fill="#ffffff"
       font-family="'Meiryo UI', 'Meiryo UI_MSFontService', sans-serif"
       font-weight="400"
       font-size="83px"
       transform="translate(1578.87,1689)"
       id="text17">ブラウザ</text><path
       d="m 2067,1771.84 h 111.87 v 10.32 H 2067 Z m 106.71,-10.31 30.94,15.47 -30.94,15.47 z"
       fill="#a6a6a6"
       id="path18" /></g></svg>
