<?xml version="1.0" encoding="UTF-8" standalone="no"?>
<svg
   width="425.70001"
   height="333.95999"
   xml:space="preserve"
   overflow="hidden"
   version="1.1"
   id="svg18"
   sodipodi:docname="configuration_pattern_01.svg"
   inkscape:version="1.3 (0e150ed6c4, 2023-07-21)"
   xmlns:inkscape="http://www.inkscape.org/namespaces/inkscape"
   xmlns:sodipodi="http://sodipodi.sourceforge.net/DTD/sodipodi-0.dtd"
   xmlns="http://www.w3.org/2000/svg"
   xmlns:svg="http://www.w3.org/2000/svg"><sodipodi:namedview
     id="namedview18"
     pagecolor="#ffffff"
     bordercolor="#000000"
     borderopacity="0.25"
     inkscape:showpageshadow="2"
     inkscape:pageopacity="0.0"
     inkscape:pagecheckerboard="0"
     inkscape:deskcolor="#d1d1d1"
     inkscape:zoom="1"
     inkscape:cx="211.5"
     inkscape:cy="165.5"
     inkscape:window-width="1904"
     inkscape:window-height="1001"
     inkscape:window-x="0"
     inkscape:window-y="0"
     inkscape:window-maximized="0"
     inkscape:current-layer="svg18" /><defs
     id="defs1"><clipPath
       id="clip0"><rect
         x="1215"
         y="621"
         width="1935"
         height="1518"
         id="rect1" /></clipPath></defs><g
     clip-path="url(#clip0)"
     transform="matrix(0.22,0,0,0.22,-267.3,-136.62)"
     id="g18"><path
       d="m 1561,1469.73 c 0,-30.78 24.95,-55.73 55.73,-55.73 h 1477.54 c 30.78,0 55.73,24.95 55.73,55.73 v 613.54 c 0,30.78 -24.95,55.73 -55.73,55.73 H 1616.73 c -30.78,0 -55.73,-24.95 -55.73,-55.73 z"
       fill="#bfbfbf"
       fill-rule="evenodd"
       id="path1" /><text
       fill="#ffffff"
       font-family="'Meiryo UI', 'Meiryo UI_MSFontService', sans-serif"
       font-weight="400"
       font-size="83px"
       transform="translate(1609.93,1530)"
       id="text1">PC</text><path
       d="m 2306,1999.78 c 0,-17.55 14.23,-31.78 31.78,-31.78 h 726.44 c 17.55,0 31.78,14.23 31.78,31.78 v 40.44 c 0,17.55 -14.23,31.78 -31.78,31.78 h -726.44 c -17.55,0 -31.78,-14.23 -31.78,-31.78 z"
       fill="#ffffff"
       fill-rule="evenodd"
       id="path2" /><text
       font-family="'Meiryo UI', 'Meiryo UI_MSFontService', sans-serif"
       font-weight="400"
       font-size="55px"
       transform="translate(2607.79,2042)"
       id="text2">Docker</text><path
       d="m 2306,1587.57 c 0,-19.65 15.92,-35.57 35.57,-35.57 h 718.86 c 19.65,0 35.57,15.92 35.57,35.57 v 316.86 c 0,19.65 -15.92,35.57 -35.57,35.57 h -718.86 c -19.65,0 -35.57,-15.92 -35.57,-35.57 z"
       fill="#ffffff"
       fill-rule="evenodd"
       id="path3" /><text
       font-family="'Meiryo UI', 'Meiryo UI_MSFontService', sans-serif"
       font-weight="400"
       font-size="55px"
       transform="translate(2576.57,1902)"
       id="text3">container</text><path
       d="m 2334,1623.31 c 0,-21.16 17.15,-38.31 38.31,-38.31 h 657.38 c 21.16,0 38.31,17.15 38.31,38.31 v 172.38 c 0,21.16 -17.15,38.31 -38.31,38.31 h -657.38 c -21.16,0 -38.31,-17.15 -38.31,-38.31 z"
       fill="#ff9999"
       fill-rule="evenodd"
       id="path4" /><text
       fill="#ffffff"
       font-family="'Meiryo UI', 'Meiryo UI_MSFontService', sans-serif"
       font-weight="400"
       font-size="73px"
       transform="translate(2571.7,1738)"
       id="text4">WHEEL</text><path
       d="m 1239,1725.5 c 0,-25.13 20.37,-45.5 45.5,-45.5 25.13,0 45.5,20.37 45.5,45.5 0,25.13 -20.37,45.5 -45.5,45.5 -25.13,0 -45.5,-20.37 -45.5,-45.5 z"
       fill="#a6a6a6"
       fill-rule="evenodd"
       id="path5" /><path
       d="m 1250.02,1780 h 68.96 c 19.34,0 35.02,15.67 35.02,34.99 V 1873 h -139 v -58.01 c 0,-19.32 15.68,-34.99 35.02,-34.99 z"
       fill="#a6a6a6"
       fill-rule="evenodd"
       id="path6" /><path
       d="m 1403,1771.84 h 111.87 v 10.32 H 1403 Z m 106.71,-10.31 30.94,15.47 -30.94,15.47 z"
       fill="#a6a6a6"
       id="path7" /><path
       d="m 1611,1607.06 c 0,-16.6 13.46,-30.06 30.06,-30.06 h 420.88 c 16.6,0 30.06,13.46 30.06,30.06 v 330.88 c 0,16.6 -13.46,30.06 -30.06,30.06 h -420.88 c -16.6,0 -30.06,-13.46 -30.06,-30.06 z"
       fill="#ffffff"
       fill-rule="evenodd"
       id="path8" /><text
       font-family="'Meiryo UI', 'Meiryo UI_MSFontService', sans-serif"
       font-weight="400"
       font-size="83px"
       transform="translate(1652.58,1686)"
       id="text8">ブラウザ</text><path
       d="m 2128,1630.84 h 111.87 v 10.32 H 2128 Z m 106.71,-10.31 30.94,15.47 -30.94,15.47 z"
       fill="#a6a6a6"
       id="path9" /><path
       d="m 1561,676.732 c 0,-30.78 24.95,-55.732 55.73,-55.732 h 1477.54 c 30.78,0 55.73,24.952 55.73,55.732 v 613.538 c 0,30.78 -24.95,55.73 -55.73,55.73 H 1616.73 c -30.78,0 -55.73,-24.95 -55.73,-55.73 z"
       fill="#bfbfbf"
       fill-rule="evenodd"
       id="path10" /><text
       fill="#ffffff"
       font-family="'Meiryo UI', 'Meiryo UI_MSFontService', sans-serif"
       font-weight="400"
       font-size="83px"
       transform="translate(1609.93,737)"
       id="text10">PC</text><path
       d="m 2306,1206.78 c 0,-17.55 14.23,-31.78 31.78,-31.78 h 726.44 c 17.55,0 31.78,14.23 31.78,31.78 v 40.44 c 0,17.55 -14.23,31.78 -31.78,31.78 h -726.44 c -17.55,0 -31.78,-14.23 -31.78,-31.78 z"
       fill="#ffffff"
       fill-rule="evenodd"
       id="path11" /><text
       font-family="'Meiryo UI', 'Meiryo UI_MSFontService', sans-serif"
       font-weight="400"
       font-size="55px"
       transform="translate(2607.79,1249)"
       id="text11">Docker</text><path
       d="M 2306,794.568 C 2306,774.924 2321.92,759 2341.57,759 h 718.86 c 19.65,0 35.57,15.924 35.57,35.568 v 316.862 c 0,19.65 -15.92,35.57 -35.57,35.57 h -718.86 c -19.65,0 -35.57,-15.92 -35.57,-35.57 z"
       fill="#ffffff"
       fill-rule="evenodd"
       id="path12" /><text
       font-family="'Meiryo UI', 'Meiryo UI_MSFontService', sans-serif"
       font-weight="400"
       font-size="55px"
       transform="translate(2576.57,1109)"
       id="text12">container</text><path
       d="M 2334,830.306 C 2334,809.15 2351.15,792 2372.31,792 h 657.38 c 21.16,0 38.31,17.15 38.31,38.306 v 172.384 c 0,21.16 -17.15,38.31 -38.31,38.31 h -657.38 c -21.16,0 -38.31,-17.15 -38.31,-38.31 z"
       fill="#ff9999"
       fill-rule="evenodd"
       id="path13" /><text
       fill="#ffffff"
       font-family="'Meiryo UI', 'Meiryo UI_MSFontService', sans-serif"
       font-weight="400"
       font-size="73px"
       transform="translate(2571.7,945)"
       id="text13">WHEEL</text><path
       d="m 1239,932.5 c 0,-25.129 20.37,-45.5 45.5,-45.5 25.13,0 45.5,20.371 45.5,45.5 0,25.129 -20.37,45.5 -45.5,45.5 -25.13,0 -45.5,-20.371 -45.5,-45.5 z"
       fill="#a6a6a6"
       fill-rule="evenodd"
       id="path14" /><path
       d="m 1250.02,987 h 68.96 c 19.34,0 35.02,15.67 35.02,34.99 V 1080 h -139 v -58.01 c 0,-19.32 15.68,-34.99 35.02,-34.99 z"
       fill="#a6a6a6"
       fill-rule="evenodd"
       id="path15" /><path
       d="m 1403,978.844 h 111.87 v 10.313 L 1403,989.156 Z m 106.71,-10.312 30.94,15.469 -30.94,15.468 z"
       fill="#a6a6a6"
       id="path16" /><path
       d="M 1611,814.056 C 1611,797.457 1624.46,784 1641.06,784 h 420.88 c 16.6,0 30.06,13.457 30.06,30.056 v 330.884 c 0,16.6 -13.46,30.06 -30.06,30.06 h -420.88 c -16.6,0 -30.06,-13.46 -30.06,-30.06 z"
       fill="#ffffff"
       fill-rule="evenodd"
       id="path17" /><text
       font-family="'Meiryo UI', 'Meiryo UI_MSFontService', sans-serif"
       font-weight="400"
       font-size="83px"
       transform="translate(1652.58,893)"
       id="text17">ブラウザ</text><path
       d="m 2128,837.844 h 111.87 v 10.312 H 2128 Z m 106.71,-10.313 30.94,15.469 -30.94,15.469 z"
       fill="#a6a6a6"
       id="path18" /></g></svg>
